<?xml version="1.0" encoding="UTF-8"?>
<svg id="Layer_2" data-name="Layer 2" xmlns="http://www.w3.org/2000/svg" viewBox="0 0 345.01 345">
  <defs>
    <style>
      .cls-1, .cls-2, .cls-3, .cls-4 {
        stroke-miterlimit: 10;
      }

      .cls-1, .cls-3, .cls-4 {
        stroke: #231f20;
      }

      .cls-1, .cls-5 {
        fill: none;
      }

      .cls-2 {
        fill: #d32927;
        font-family: Chiller-Regular, Chiller;
        font-size: 40.31px;
        stroke: #ed2024;
        stroke-width: 2px;
      }

      .cls-6, .cls-3 {
        fill: #fff;
      }

      .cls-4 {
        stroke-width: 6px;
      }

      .cls-7 {
        fill: #231f20;
      }
    </style>
  </defs>
  <g id="Layer_1-2" data-name="Layer 1">
    <circle class="cls-3" cx="172.39" cy="87.25" r="25.5"/>
    <circle class="cls-3" cx="172.39" cy="257.5" r="25.5"/>
    <g>
      <path d="m181.55,2.74c-3.03-.16-6.09-.24-9.16-.24s-6.13.08-9.16.24c-42.63,4.57-75.84,40.66-75.84,84.51,0,46.94,38.06,85,85,85v.25c46.95,0,85,38.06,85,85s-38.05,85-85,85c93.89,0,170-76.11,170-170S271.18,7.5,181.55,2.74Zm-9.16,110.01c-14.08,0-25.5-11.42-25.5-25.5s11.42-25.5,25.5-25.5,25.5,11.42,25.5,25.5-11.41,25.5-25.5,25.5Z"/>
      <g>
        <path class="cls-7" d="m181.53,2.99c-5.01-.18-12.26-.24-17.22.01-40.7,3.21-74.08,39.13-75.16,79.76-1.74,33.96,19.22,67.32,50.53,80.54,10.28,4.51,21.47,6.83,32.71,6.94,0,0,2.03.03,2.03.03,0,0-.02,1.98-.02,1.98,0,0,0,.25,0,.25,0,0-2-2-2-2,11.39.12,22.73,2.48,33.16,6.94,43.38,18.17,64.2,69.6,46.12,112.9-12.66,31.6-45.19,53.67-79.28,53.62,0,0,0-2.92,0-2.92,21.69-.24,43.27-4.66,63.23-12.93,72.07-29.52,114.75-106.54,101.9-183.29C325.6,68.33,259.45,6.49,181.53,2.99h0Zm.03-.5c91.83,4.2,166.43,82.14,163.36,174.66-.88,67.09-45.31,130.48-107.77,154.74-20.52,8.24-42.68,12.28-64.76,12.08,0,0,0-2.92,0-2.92,33.25.72,65.33-20.46,77.8-51.31,23.05-55.06-18.3-115.88-77.8-115.22,0,0-1.98.02-1.98.02l-.02-2.02s0-.25,0-.25c0,0,2,2,2,2-23.63.35-47.16-9.75-63.3-27.03-24.92-25.88-30.48-66.46-13.91-98.22C108.35,23.06,135.27,4.73,164.27,2.42c4.97-.21,12.24-.16,17.29.07h0Z"/>
        <path class="cls-7" d="m172.39,113c-19.62.09-33.91-17.37-24.83-36.04,6.23-12.55,21.81-20.04,35.36-15.12,10.38,3.7,17.84,14.3,17.64,25.41-.04,15.55-13.33,25.92-28.17,25.75h0Zm0-.5c16.48.07,27.16-19.49,21.15-34.01-7.55-19.37-36.46-21.39-43.43-.47-4.82,14.81,5.54,34.55,22.28,34.48h0Z"/>
      </g>
    </g>
    <path class="cls-3" d="m172.39,2.5c-3.07,0-6.13.08-9.16.24,3.01-.32,6.07-.49,9.16-.49s6.15.17,9.16.49c-3.03-.16-6.09-.24-9.16-.24Z"/>
    <circle class="cls-3" cx="172.39" cy="87.25" r="25.5"/>
    <g>
      <circle class="cls-6" cx="172.39" cy="87.25" r="25.5"/>
      <g>
        <path class="cls-6" d="m200.31,87.05c-.02.26.39.17.47.2-.11-.44-.58-.19-.47-.2Z"/>
        <polygon class="cls-6" points="199 82.94 199.18 82.99 198.67 82.46 199 82.94"/>
        <path class="cls-6" d="m198.15,79.18c-.58.55.46,1.32.39,2.05l-.13.15.64.18c-.3-.81-.93-1.75-.9-2.38Z"/>
        <path class="cls-6" d="m198.88,76.67c-.21.23-.38-.35.09.51.01-.06.02-.08.03-.11-.03-.08-.08-.2-.13-.4Z"/>
        <path class="cls-6" d="m199,77.07c.17.4.12-.35,0,0h0Z"/>
        <path class="cls-6" d="m198.09,75.31l.47.41c.1-.17-.09-.65.1-.53-.38-.47-.47-.29-.57.12Z"/>
        <path class="cls-6" d="m197.39,75.05l.22.21c.04-.07.03-.15-.22-.21Z"/>
        <path class="cls-6" d="m198.07,75.72l-.47-.46c-.07.12-.28.23.19.22-.21.04.02.07.27.24Z"/>
        <path class="cls-6" d="m198.12,76.08c0,.34.04.75-.39.34.46.94.9.61.39-.34Z"/>
        <path class="cls-6" d="m197.38,79.22c-.02.14-.04.29-.08.43l.31.26c-.15-.13-.01-.79-.23-.69Z"/>
        <path class="cls-6" d="m196.73,72.03c-.15.05-.24.38-.39.51l.36.26c-.02-.24-.15-.63.02-.78Z"/>
        <path class="cls-6" d="m196.34,72.54l-.54-.39c.26.48.42.5.54.39Z"/>
        <polygon class="cls-6" points="196.63 75.31 197.55 75.97 196.54 75.15 196.63 75.31"/>
        <polygon class="cls-6" points="195.38 70.04 195.88 70.11 195.07 69.92 195.38 70.04"/>
        <path class="cls-6" d="m194.35,68.81c.4.01.13-.59.46-.5-.34-.3-.78-.41-1.17-.51.33.18.57.49.71,1Z"/>
        <path class="cls-6" d="m193.03,67.62c.17.08.38.13.62.19-.18-.09-.37-.17-.62-.19Z"/>
        <path class="cls-6" d="m195.28,71.25c.05-.09.19-.3.06-.64l-.2.44c.04.06.09.13.14.2Z"/>
        <path class="cls-6" d="m195.14,71.07h0c-.15-.23-.25-.38-.29-.45.04.06.12.19.29.45Z"/>
        <path class="cls-6" d="m195.32,71.3s-.02-.03-.03-.05c-.02.04-.02.06.03.05Z"/>
        <path class="cls-6" d="m196.25,73.74c-.39-.19-.98-.67-.94.11.38.07.35-.39.94-.11Z"/>
        <path class="cls-6" d="m195.05,71.84c.1.19.17.4.26.59.09-.07.17-.26.36-.17-.21-.14-.4-.29-.62-.42Z"/>
        <polygon class="cls-6" points="194.75 71.67 195.05 71.84 194.94 71.63 194.75 71.67"/>
        <path class="cls-6" d="m193.49,68.73c-.33-.09-.55-.3-.8-.54.19.33.41.65.66.91.14-.05.43-.09.15-.38Z"/>
        <path class="cls-6" d="m194.3,69.86l-.06-.03c0,.05,0,.09.06.03Z"/>
        <polygon class="cls-6" points="190.22 65.83 190.22 65.93 190.27 65.88 190.22 65.83"/>
        <path class="cls-6" d="m193.33,69.2c.12.26.31.31.52.35-.17-.13-.34-.27-.5-.45-.06.02-.09.05-.02.1Z"/>
        <path class="cls-6" d="m192.21,67.06c.05.16.12.33.18.51,0-.21-.06-.56-.18-.51Z"/>
        <path class="cls-6" d="m194.28,69.68s.03.01.04.02c.02-.13-.01-.09-.04-.02Z"/>
        <path class="cls-6" d="m194.28,69.68c-.14-.08-.28-.1-.43-.13.13.11.26.21.39.28,0-.05.02-.1.04-.15Z"/>
        <path class="cls-6" d="m187.73,67.37c.26-.28,1.08-.19,1.21.54.62.16,1.21-1.06,1.27-1.99-.13.13-.22.22-.87.03.07.28.72,1.28.11,1.2-.73-.38-.42-.52-.6-.93-.04.58-1.26-.04-1.54.65l.7.2c-.06.1-.37.09-.28.29Z"/>
        <path class="cls-6" d="m191.09,66.78l.23.14c-.18-.25-.23-.51-.32-1.02-.46-.15-.62-.1-.73-.02l.93.91-.11-.02Z"/>
        <path class="cls-6" d="m192.18,67.73c-.44.14-1.03-.13-1.08.45.55.5.62.12,1.06.32-.9-.83.41.1-.01-.73.22.13.38.28.54.42-.11-.2-.21-.41-.3-.62,0,.02,0,.03,0,.04h0s0,0,0,0c0,.08-.01.11-.03.05,0,0-.02,0-.02-.01-.05.04-.1.06-.15.07-.18-.33.04-.12.15-.07.02-.01.04-.02.06-.03h0c-.33-.27-.72-.47-1.08-.7.15.23.42.42.86.81Z"/>
        <path class="cls-6" d="m194.19,73.8c.01-.05.04-.07.07-.08-.08-.04-.13-.04-.07.08Z"/>
        <path class="cls-6" d="m194.17,73.25c.09.04.28,0,.38.27.01.27-.18.11-.29.19.18.08.57.34.47-.22l-.09-.04c-.12-.48,0-1.31.1-1.27-.25.34-.41.6-.57,1.07Z"/>
        <path class="cls-6" d="m193.24,70.52c-.25-.23-.53-.42-.81-.62l.05.61.15-.16c.29.49.42.23.6.17Z"/>
        <path class="cls-6" d="m190.27,65.59l.4-.26c-.28.02-.59.08-.88.12l.49.14Z"/>
        <polygon class="cls-6" points="189.15 64.81 189.43 64.52 188.99 64.5 189.15 64.81"/>
        <path class="cls-6" d="m152.51,99.02l.23.16c-.09-.08-.16-.13-.23-.16Z"/>
        <path class="cls-6" d="m151.66,97.39l-.19.04c.13.03.22.03.19-.04Z"/>
        <path class="cls-6" d="m157.67,63.47c-.58-.08-1.33-.29-1.04.05l.36.29c.23-.23.46-.31.68-.34Z"/>
        <path class="cls-6" d="m147.49,82.25s.1-.06.15-.09c-.12-.13-.23-.24-.34-.35.06.14.11.28.19.44Z"/>
        <path class="cls-6" d="m149.21,82.87l-.35.45c.11-.1.23-.24.35-.45Z"/>
        <path class="cls-6" d="m159.58,105.94c.16-.06.32-.12.48-.2-.37-.25-.33.04-.48.2Z"/>
        <path class="cls-6" d="m176.35,59.69c-.36-.23-.66-.34-.92-.4.44.32.75.74.92.4Z"/>
        <path class="cls-6" d="m148.1,100.62c.17.12.28.15.36.09-.16-.13-.29-.18-.36-.09Z"/>
        <path class="cls-6" d="m174.31,59.21c.07.05.13.07.2.11.29-.05.58-.12.92-.04-.32-.23-.72-.35-1.12-.07Z"/>
        <path class="cls-6" d="m191.48,100.13s.05-.03.09-.04c-.04-.04-.07,0-.09.04Z"/>
        <path class="cls-6" d="m199.52,90.9c0,.13-.02.33-.04.52.04-.09.06-.24.04-.52Z"/>
        <path class="cls-6" d="m184.54,61.8c.28.1.06-.02,0,0h0Z"/>
        <path class="cls-6" d="m185,63.93c-.08.02-.14.05-.2.14.07-.08.14-.12.2-.14Z"/>
        <path class="cls-6" d="m171.51,61.86h-.02c.08.08.07.07.02,0Z"/>
        <path class="cls-6" d="m184.85,62.17c-.07-.09-.17-.19-.28-.28.04.06.12.14.28.28Z"/>
        <path class="cls-6" d="m184.89,61.96c.08.06.15.1.21.15.07-.05.06-.1-.21-.15Z"/>
        <path class="cls-6" d="m184.17,61.65c.15.07.28.15.41.24-.04-.05-.05-.08-.03-.09-.08-.03-.19-.08-.38-.15Z"/>
        <path class="cls-6" d="m175.56,111.2s.04.02.06.03c.22-.22.12-.17-.06-.03Z"/>
        <path class="cls-6" d="m155.19,71.3s0-.02,0-.03l-.04.02.03.02Z"/>
        <path class="cls-6" d="m154.85,72.15c-.16-.62.04-.74.31-.87l-1.12-.63c.26.51.53,1.01.81,1.5Z"/>
        <path class="cls-6" d="m155.2,102.49l-.11-.69c.97.11,1.12.61,1.18-.15-.52.42-.96.05-1.33-.39-.36-.43-.73-.86-1.31-.5v-.48c.05.1.13.07.18.16.07-.97-1.14.1-1.52-.88-.1-.36-.05-.66.21-.54l-.7-.5c-.09-.21.14-.27.24-.07-.23-.32-.41-.67-.62-1.01h.04c-.26-.07-.73-.28-.94-.4.04-.36.2.08.32-.06-.19-.16-.4-.31-.59-.48.22-.39.74,0,.91.41.48-.56.35-.63.11-.77-.22-.14-.54-.36-.39-1.11l.37.51c.59-.64.17-.98.39-1.74-.19.2-.68,1.66-1.24,1.11.03-.22-.02-.48-.4-.76.46-.15.26-.47.11-.91l.63-.14c-.3-.43-.61-.31-.96-.53-.08-.56.37-.77.77-.98-.03-.89-.69.76-.96-.26.15-.79-.26-1.24-.68-2.12.19-.55.39.06.57-.14l-.53-.43c0-.12.16-.09.24-.07-.22-.39-.64,0-.85-.63-.35-.08-.13-.42.12-.82.27-.4.52-.86.14-1.27.19-.18.39.12.64.07-.47-1.09-.36-.93-.92-1.9l.53-.69c-.56.48-1.01-.31-1.37-1.06-.26.16-.49.3-.6.41-.06-.38-.12-.76-.13-1.13.14-.1.32.05.54.28-.03-.08-.07-.16-.1-.22.33-.32.63-.04.92.29-.16.09-.32.19-.48.28.34.33.73.64,1.11.66-.06-.08-.11-.21-.12-.36.09.08.18.14.25.13.08-.02-.06-.15-.17-.34l.75-.07-.26-.11.75-1.13c-.12-.27-.26-.54-.39-.82-.12-.28-.23-.56-.33-.87-.18-.61-.32-1.3-.15-2.08.31.55.75.41,1.31.67-.76.12-.14,1.18-.53,1.83.2-.35.45-.17.51-.04l-.1-1.47c.46.22.44-.13.8-.35-1.03-.16-.17-1.19-.2-1.83.31.13.56.4.2.97,1-.31-.66-1.43.31-1.76-.08.15-.17.2-.06.34-.06-.48.65-1.18.78-.83l-.08.14c.17-.22.36-.5.54-.82.2-.31.42-.63.58-.95.34-.64.5-1.29.24-1.62.09.06.69.76.79.93-.32-1.09-.57-2.22-.77-3.42.41.63,2.1,1.35,1.8,2.31.26-.11.53-.28.74-.83-.2.04-1.07-.44-.94-.66,1.07.12.66-.01,1.73-.05-.3.06-.85-.99-.5-1.26.06.18.76.83.73,1.03,0-.52.03-1.05.09-1.54-.09.32.56.77.94.88-.22-.11.73-.52.88-.77l-.5.05c1.02-.57.07-1.98,1.17-2.59-.01.28.43,1.41,1.01,1.22-.02-.31-.12-1.1-.06-1.88.06-.78.26-1.61.7-2.07l.34.2c.22-.24.43-.49.67-.7-.23,1-.77,3.33-1.08,4.26.51.03.29.29.86-.02.34.18-.1.57-.26.66l1.41-.45c-.17-.29.02-.57.21-.84.21-.24.43-.47.3-.72-.45.38-.83.87-1.22,1.3-.36-.54.04-2.21,1.2-2.46.36.15.22,1.19.33,1.39.04-.26.81-.77.96-.65l-.31.5c.63.03.65-1.2,1.54-.75.26-.02.93.66.87.26-.56-.65-1.26-2.92-1.1-3.55.12.01,1.6.35,1.97.71.53.53-.39,1.51.07,1.96-.02-.18.17-.44.25-.53.29.11-.01.58.54.41,0-.69,1.18-.12.19-.61.55-.27.62.01,1.28-.05-.26-.43.49-1.52,1.11-1.75-.03.17.12.39.19.49.31,0,.58.02.83.04.25.04.48.1.71.16.46.11.9.21,1.46.24.09.17.61.4.35.68.17-.1.34-.3.68-.27.58.68-.76-.02-.35.76.09-.39.93-.41,1.46-.58-.05-.63-1.12-.29-1.62-.12.08-.84,1.05-1.59,2.38-1.78,1.03-.02.31.62.51.53.88.3,1.35.04,1.79-.17.43-.21.84-.38,1.49.2.41.72-.33,1.02-.32,1.43-.79-.09-1.04-.72-1.57-.83l.57.41c-.3.11-.83.11-1.07-.11.36.54,2.9.94,3.96,1.96.29-.06.76-.04.67-.33l-.43-.12c-.19-.57,1.01-.18.59-.61.66,0,1.56-.18,2.18.52l-.17.62c.08-.16-.3-.61-.6-.57.45-.05.7,1.39,1.45.91l-.3-.68c.68.07,1.75-.11,2.26.56.05-.71-.18-.05-.25-.97-.07.99-1.74-1.11-1.55.09-.08-.99-.66-.85-1.03-1.8-.07.19.07.46-.5.08-.05.04-.15.07-.21.09-.02-.01-.02-.02-.03-.03l.02.04s-.05.02,0,.01c.11.15.17.3.17.42-.51.27-1.44-.2-1.86-.13-.31-.26.24-.14.13-.43-.21.03-.41.07-.63.12.13-.43-.71-1.06.27-.98l-.79-.31c-.39-.41-1.01-.75-1.48-.7-.37-.2-1.12.22-.69-.03l-1.36-.06v-.11c-.61-.22-1.33-.1-2.02-.13-.7,0-1.39-.15-2.12-.57-.45.09-.91.21-1.64.04l-.14-.4c-.57.1-1.74-.32-1.97.08-.34-.49-1.06-.57-1.81-.39-.75.16-1.52.44-2.04.43l.06.5c-.69.1-1.3.43-2.07.83l.17.42c-.6.49-1.86.26-2.94.7,0-.19.3-.25.53-.22-.41-.12-.78-.07-1.12.07-.33.15-.61.41-.89.66-.55.52-1.06,1-1.77,1.01-.19.3-.4.37-.65.39.02-.02.04-.04.05-.06-.03.01-.07.04-.11.06-.16,0-.33,0-.5.02.17.02.32.04.44.01-.2.13-.48.37-.73.65l-.39-.32s-.04.03-.06.06c-.4.04-.11.34.25.54-.11.15-.18.34-.22.51-.68-.47-.58.76-1.39.33.03.23-.28.56-.55.92-.24.39-.43.82-.22,1.2-.08-.08-.19-.05-.06-.18-.35.18-.7.38-.79.78l-.55-.33c-.03.38-.03.78-.02,1.18-.61.11-.92.13-.91-.58-.31,1.42-.49.94-.63,2.18l-.28-.29c-.22.31-.15,1.11-.54,1.09-1.18.19-2.41,3.34-3.89,5.05.63.04.39.21.12.44-.26.23-.58.52-.17.73-.3.02-.55.25-.65-.17-.12,1.15-1.04,1.46-.48,2.44-.3.05-.33-.35-.51-.28.03.11.14.42-.05.49-.19.07-.18-.22-.25-.43-.25,1.16.55,1.47,1.3,1.72-.52.46-.52.76-.06,1.26-.29.14-.61.43-.59-.28-.09.37-.76,2.34-.1,2.44-.17.11-.08.54,0,.65-.08.87-.14.95-.13,1.81l.12-.24c.74.34.17.7.3,1.39l-.08-.02c-.45,1.61.25.65-.2,2.27l.46-.14c1.04,0-.4,1.44.14,2.28l.22-.37c.41.4-1.05,1.64-1.05,2.2-.06.13-.18-.14-.29-.27-.24,1.49.65.01,1.04.94-.27.28-.9.02-.76.69-.12.43,1.68,1.5,1.46,2.57.15-.29.31-.57.68-.23.39.57-.08,2.18.98,2.34-.02.11-.06.17-.11.21.47.36,1.21,1.32,1.75,1.34-.56.67.13,1.23.75,1.71.61.5,1.26.85.69,1.34l1.18,1.17-.14.08c.66.85,1.24.8,1.74.78.11.24-.12.23-.19.27.92,1.28,1.17,1.29,2.62,1.45l-.18.48c.22-.01.55.49,1.08.97.53.48,1.18,1.09,2.01,1.16-.04.04-.11.11-.25.12.91.1,1.66.9,2.44,1.4.78.49,1.51.8,2.08.04.39,0,.8-.08,1.2-.12-1.33-.49.42-.7-.06-1.13.54.03,1.22.88.55.8l-.08-.11c-.48.84,1.62.78,1.46,1.36,2.79.5,5.58,1.07,8.32.86l-.38-.69c.31-.01.61-.06.92-.09.26.13.41.52-.27.59.41.36,1.07-.51,1.06-.67,1.34.09-.37.92.03.88l.54-.14-.14-.07c.39-.38.38-.64,1.15-.81.52.02.36.37.56.35.01.05.08.06.31-.06l1.18-.24-.62-.44c.43-.4,1.07-.26.36-.74.52.38,1.58.07,2.57-.29.97-.41,1.84-.96,2.13-.91.48-.66,1.05-1.08,1.84-1.47-.25.01-.7-.47-.03-.79.24.63.63.59,1.06.4.43-.2.92-.5,1.46-.3-.42-.09,0-.45.36-.81.36-.37.61-.78,0-.83.54-.34.35.36.92.27.8-1.38,2.71-2.1,3.75-3.76-.12-.13-.52-.04-.49-.53l1.31-.28c.15-.37-.6-.83.26-1.08-.17,0-.43,0-.35-.24,1.35-1.32,2.11-3.11,2.7-4.91.28-.91.63-1.79.92-2.69.33-.89.78-1.76,1.28-2.66-.42.46-.4.11-.35-.28-.12.24-.43-.07-.67-.06.29-.48.61-.97.88-1.47-.64-.34.04-1.7-.58-1.89l.09.5c-.71-.66-1.7.81-2.65.62.42.37.07.79-.28,1.23-.34.45-.64.92-.12,1.57-.23.2-.27-.26-.51-.18.38.35.36.69.03,1.24l-.08-.09c-.3,1.69-.96,2.27-1.92,3.88l.49.07c-.24.34-.41.36-.6.48.44.73.54-1.02,1.07-.31-.56.06-.88.7-1.2,1.32-.33.62-.76,1.16-1.3,1.03-.33.53.56.13.23.66l-.33-.02.24.35c-.26.32-.72.26-.92.13.08-.06.11-.26.15-.36-.6.21-.78,1.24-.98,1.32l.5-.36c-.2.37-.43.76-.72,1.12-.3.34-.62.69-.93,1.04l-.45.53c-.16.16-.32.33-.47.5-.3.34-.56.7-.77,1.1l.24.09c-.72,1.15-.96.44-1.95,1.44v-.07c-.08.36-.35.64-.69.82.16-.4-.84-.09-.6-.57-.94,1.08-.38.66-.79,1.84l-.37-.24c-.13.43-.08.6-.69,1.01.39-.54-.65-.32-.24-.98-.42-.02-.72.07-.96.21-.25.13-.45.28-.63.44-.36.3-.66.53-1.16.08-.31,1.21,1.38.1,1.1.44.43.2-.27.92-.76.99-.47.17-1.18-1.02-2.28-.71.11-.02.1-.1.21-.13-.48-.17-.74.6-1.36.24-.19.65-.69.07-.65.86l1.05-.34c-.56.29-1.02,1.3-2.11,1.01.06-.17.34-.43.54-.57-.32-.19-.55.26-.89.03,0-.76,1.29-.36,1.83-1.05-.36-.29-1.12.75-.92-.15-.15.58-.45.59-.77.57-.33-.05-.7-.13-1.07.31l.02-.48c-.12.08-.36.32-.6.32l.38-.64c-.61.55-1.21-.37-1.79-.14,1.24.04.27.6.81.94-1.61.59-.88-1.27-2.59-1.13.23-.04.85.33.46.53-.33-.1-.74-.35-.9-.63-1.13-.08.11.51-.41.73-.31-.63-.59.15-1.15.25l.08-.47c-1.23-.55-.55.92-1.66.27l.65-.52h-.64s.26-.49.26-.49c-.74.21-.95.11-1.51-.27.04.38-.35.8-.93.61-.29-.41.37-.35-.44-.58.29-.22.61-.5.8.04.09-.14.27-.22.36-.36-.29-.46-.96-.43-1.25-.53.1.06.22.13.26.21-.46.09-.91.13-1.36.14-.1-.25.1-.31.29-.38-.24-.06-.48.07-.83-.05.26-.31.42-.68.93-.64l-1.2-.09c0-.18-.29-.67-.09-.73-.39-.52-1.68-.11-2.21-.83-.08.04-.19.04-.36-.02-.56-.57-.85-1.27-1.86-1.51l.09-.87c-.64-.36-.07,1.13-1.15.51-.8-.43.18-.64.11-.99-.52-.05-1.57-.14-1.68-1.1.28.11.34.32.54.47Zm-4.8-7.55c.16.13.57.35.35.57-.59,0-.39-.24-.35-.57Zm-1.67-13.86c.12.17,0,.36-.25.55,0-.18.07-.37.25-.55Zm32.73-20.12s-.02,0-.03.01c-.38-.34-.25-.21.03-.01Zm.84.53c.12-.03.13-.09.12-.17-.11.09-.31.02-.54-.09.02.14.11.27.42.26Zm-3.35,52.37l-.21-.08c.37-.24.29-.09.21.08Z"/>
        <path class="cls-6" d="m149.01,82.79c-.09.04-.18.03-.27.03.07.09.16.1.27-.03Z"/>
        <path class="cls-6" d="m159.49,105.97l.02.02s.05-.03.07-.06l-.09.03Z"/>
        <path class="cls-6" d="m168.32,64.09c-.18-.04-.29-.12-.37-.2.01.12.11.2.37.2Z"/>
        <path class="cls-6" d="m187.3,63.06l-.61-.22c.27.14.31.29.4.43.05-.1.03-.31.2-.21Z"/>
        <path class="cls-6" d="m189.66,68.58c.1.01.13.11.24.13l.14-.18c-.28-.23-.58-.26-.37.05Z"/>
        <path class="cls-6" d="m186.94,64.71c-.19.38.23.42.6.62-.02-.01-.04-.03-.06-.04.43-.4-.05-.51-.54-.58Z"/>
        <path class="cls-6" d="m187.62,65.38c.11.06.23.13.32.22.17-.16-.1-.13-.32-.22Z"/>
        <path class="cls-6" d="m183.55,61.69c.14.18.33-.42.37-.22.42-.38-1.51-.01-.37.22Z"/>
        <polygon class="cls-6" points="186.49 66 186.64 65.51 186.22 65.73 186.49 66"/>
        <path class="cls-6" d="m183.91,64.11l.52.4c.03-.08.13-.09.24-.08-.35-.19-.7-.47-.76-.33Z"/>
        <path class="cls-6" d="m184.67,64.44c.18.1.35.21.49.19-.1-.05-.31-.17-.49-.19Z"/>
        <polygon class="cls-6" points="185.66 65.68 185.55 65.49 185.19 65.23 185.66 65.68"/>
        <path class="cls-6" d="m177.37,61.77l-.72.03c-.1.16.07.29.34.26.19-.09.46-.12.38-.3Z"/>
        <path class="cls-6" d="m179.08,63.6c-.15-.15-.13-.26-.19-.44l-.18.59.37-.15Z"/>
        <path class="cls-6" d="m177.15,63.27c-.1.16-1.04.34-.21.43.1-.17.78-.18.21-.43Z"/>
        <polygon class="cls-6" points="166.98 62.61 167.15 62.56 166.92 61.57 166.98 62.61"/>
        <path class="cls-6" d="m159.92,68.18c.76-.18-.19-.62.55-.71.03-.3-.61.08-.56-.19-.26.45-.54.45,0,.91Z"/>
        <path class="cls-6" d="m159.92,67.27c.04-.07.08-.15.12-.25-.08.12-.11.2-.12.25Z"/>
        <polygon class="cls-6" points="200.26 88.85 200.5 88.28 200.14 88.64 200.26 88.85"/>
        <path class="cls-6" d="m199.56,87.72l.66-.13-.57-.35c.02.13.07.38-.08.47Z"/>
        <path class="cls-6" d="m151.25,93.29h-.16c-.14.12-.13.23-.1.45l.26-.45Z"/>
        <polygon class="cls-6" points="153.36 99.2 153.32 99.1 152.93 99.59 153.36 99.2"/>
        <path class="cls-6" d="m157.22,102.8c-.15-.15-.4-.24-.53-.42.37.28.06.98.53.42Z"/>
      </g>
    </g>
    <circle class="cls-3" cx="172.39" cy="257.5" r="25.5"/>
    <circle class="cls-4" cx="172.39" cy="257.5" r="25.5"/>
    <g>
      <path class="cls-6" d="m172.39,172.5v-.25c-46.94,0-85-38.06-85-85,0-43.85,33.21-79.94,75.84-84.51C73.61,7.5,2.39,81.68,2.39,172.5s76.12,170,170,170c46.95,0,85-38.06,85-85s-38.05-85-85-85Zm0,110.5c-14.08,0-25.5-11.42-25.5-25.5s11.42-25.5,25.5-25.5,25.5,11.42,25.5,25.5-11.41,25.5-25.5,25.5Z"/>
      <g>
        <path class="cls-5" d="m172.39,172.5v-.25c-46.94,0-85-38.06-85-85,0-43.85,33.21-79.94,75.84-84.51C73.61,7.5,2.39,81.68,2.39,172.5s76.12,170,170,170c46.95,0,85-38.06,85-85s-38.05-85-85-85Zm0,110.5c-14.08,0-25.5-11.42-25.5-25.5s11.42-25.5,25.5-25.5,25.5,11.42,25.5,25.5-11.41,25.5-25.5,25.5Z"/>
        <g>
          <path class="cls-7" d="m172.59,285.43c-.26-.02-.17.39-.2.47.44-.11.19-.58.2-.47Z"/>
          <polygon class="cls-7" points="176.69 284.11 176.65 284.29 177.18 283.78 176.69 284.11"/>
          <path class="cls-7" d="m180.46,283.26c-.55-.58-1.32.46-2.05.39l-.15-.13-.18.64c.81-.3,1.75-.93,2.38-.9Z"/>
          <path class="cls-7" d="m182.97,283.99c-.23-.21.35-.38-.51.09.06.01.08.02.11.03.08-.03.2-.08.4-.13Z"/>
          <path class="cls-7" d="m182.57,284.12c-.4.17.35.12,0,0h0Z"/>
          <path class="cls-7" d="m184.33,283.2l-.41.47c.17.1.65-.09.53.1.47-.38.29-.47-.12-.57Z"/>
          <path class="cls-7" d="m184.59,282.5l-.21.22c.07.04.15.03.21-.22Z"/>
          <path class="cls-7" d="m183.91,283.18l.46-.47c-.12-.07-.23-.28-.22.19-.04-.21-.07.02-.24.27Z"/>
          <path class="cls-7" d="m183.56,283.23c-.34,0-.75.04-.34-.39-.94.46-.61.9.34.39Z"/>
          <path class="cls-7" d="m180.42,282.49c-.14-.02-.29-.04-.43-.08l-.26.31c.13-.15.79-.01.69-.23Z"/>
          <path class="cls-7" d="m187.61,281.84c-.05-.15-.38-.24-.51-.39l-.26.36c.24-.02.63-.15.78.02Z"/>
          <path class="cls-7" d="m187.1,281.45l.39-.54c-.48.26-.5.42-.39.54Z"/>
          <polygon class="cls-7" points="184.32 281.74 183.67 282.67 184.49 281.66 184.32 281.74"/>
          <polygon class="cls-7" points="189.6 280.49 189.52 280.99 189.72 280.18 189.6 280.49"/>
          <path class="cls-7" d="m190.83,279.47c-.01.4.59.13.5.46.3-.34.41-.78.51-1.17-.18.33-.49.57-1,.71Z"/>
          <path class="cls-7" d="m192.02,278.14c-.08.17-.13.38-.19.62.09-.18.17-.37.19-.62Z"/>
          <path class="cls-7" d="m188.39,280.39c.09.05.3.19.64.06l-.44-.2c-.06.04-.13.09-.2.14Z"/>
          <path class="cls-7" d="m188.57,280.25h.01c.22-.14.37-.24.43-.29-.06.04-.19.12-.45.29Z"/>
          <path class="cls-7" d="m188.34,280.43s.03-.02.05-.03c-.04-.02-.06-.02-.05.03Z"/>
          <path class="cls-7" d="m185.89,281.36c.19-.39.67-.98-.11-.94-.07.38.39.35.11.94Z"/>
          <path class="cls-7" d="m187.8,280.16c-.19.1-.4.17-.59.26.07.09.26.17.17.36.14-.21.29-.4.42-.62Z"/>
          <polygon class="cls-7" points="187.97 279.87 187.8 280.16 188.01 280.05 187.97 279.87"/>
          <path class="cls-7" d="m190.91,278.6c.09-.33.3-.55.54-.8-.33.19-.64.41-.91.66.05.14.09.43.37.15Z"/>
          <path class="cls-7" d="m189.77,279.41l.03-.06c-.05,0-.09,0-.03.06Z"/>
          <polygon class="cls-7" points="193.8 275.34 193.71 275.33 193.76 275.38 193.8 275.34"/>
          <path class="cls-7" d="m190.44,278.44c-.26.12-.31.31-.35.52.13-.17.27-.34.45-.5-.02-.06-.05-.09-.1-.02Z"/>
          <path class="cls-7" d="m192.58,277.33c-.16.05-.33.12-.51.18.21,0,.56-.06.51-.18Z"/>
          <path class="cls-7" d="m189.96,279.39s-.01.03-.02.04c.13.02.09-.01.02-.04Z"/>
          <path class="cls-7" d="m189.96,279.39c.08-.14.1-.28.13-.43-.11.13-.21.26-.28.39.05,0,.1.02.15.04Z"/>
          <path class="cls-7" d="m192.27,272.84c.28.26.19,1.08-.54,1.21-.16.62,1.06,1.21,1.99,1.27-.13-.13-.22-.22-.03-.87-.28.07-1.28.72-1.2.11.38-.73.52-.42.93-.6-.58-.04.04-1.26-.65-1.54l-.2.7c-.1-.06-.09-.37-.29-.28Z"/>
          <path class="cls-7" d="m192.86,276.2l-.14.23c.25-.18.51-.23,1.02-.32.15-.46.1-.62.02-.73l-.91.93.02-.11Z"/>
          <path class="cls-7" d="m191.91,277.29c-.14-.44.13-1.03-.45-1.08-.5.55-.12.62-.32,1.06.83-.9-.1.41.73-.01-.13.22-.28.38-.42.54.2-.11.41-.21.62-.3-.02,0-.03,0-.04,0h0s0,0,0,0c-.08,0-.11-.01-.05-.03,0,0,0-.02.01-.02-.04-.05-.06-.1-.07-.15.33-.18.12.04.07.15.01.02.02.04.03.06h0c.26-.33.46-.72.69-1.07-.23.15-.42.42-.81.86Z"/>
          <path class="cls-7" d="m185.84,279.31c.05.01.07.04.08.07.04-.08.04-.13-.08-.07Z"/>
          <path class="cls-7" d="m186.39,279.28c-.04.09,0,.28-.27.38-.27.01-.11-.18-.19-.29-.08.18-.34.57.22.47l.04-.09c.48-.12,1.31,0,1.27.1-.34-.25-.6-.41-1.07-.57Z"/>
          <path class="cls-7" d="m189.12,278.35c.23-.25.42-.53.62-.81l-.61.05.16.15c-.49.29-.23.42-.17.6Z"/>
          <path class="cls-7" d="m194.05,275.38l.26.4c-.02-.28-.08-.59-.12-.88l-.14.49Z"/>
          <polygon class="cls-7" points="194.83 274.26 195.11 274.54 195.14 274.1 194.83 274.26"/>
          <path class="cls-7" d="m160.62,237.62l-.16.23c.08-.09.13-.16.16-.23Z"/>
          <path class="cls-7" d="m162.25,236.77l-.04-.19c-.03.13-.03.22.04.19Z"/>
          <path class="cls-7" d="m196.17,242.79c.08-.58.29-1.33-.05-1.04l-.29.36c.23.23.31.46.34.68Z"/>
          <path class="cls-7" d="m177.39,232.6s.06.1.09.15c.13-.12.24-.23.35-.34-.14.06-.28.11-.44.19Z"/>
          <path class="cls-7" d="m176.77,234.32l-.45-.35c.1.11.24.23.45.35Z"/>
          <path class="cls-7" d="m153.7,244.69c.06.16.12.32.2.48.25-.37-.04-.33-.2-.48Z"/>
          <path class="cls-7" d="m199.95,261.46c.23-.36.34-.66.4-.92-.32.44-.74.75-.4.92Z"/>
          <path class="cls-7" d="m159.02,233.21c-.12.17-.15.28-.09.36.13-.16.18-.29.09-.36Z"/>
          <path class="cls-7" d="m200.43,259.42c-.05.07-.07.13-.11.2.05.29.12.58.04.92.23-.32.35-.72.07-1.12Z"/>
          <path class="cls-7" d="m159.51,276.59s.03.05.04.09c.04-.04,0-.07-.04-.09Z"/>
          <path class="cls-7" d="m168.74,284.63c-.13,0-.33-.02-.52-.04.09.04.24.06.52.04Z"/>
          <path class="cls-7" d="m197.83,269.66c-.1.28.02.06,0,0h0Z"/>
          <path class="cls-7" d="m195.71,270.11c-.02-.08-.05-.14-.14-.2.08.07.12.14.14.2Z"/>
          <path class="cls-7" d="m197.78,256.63v-.02c-.08.08-.07.07,0,.02Z"/>
          <path class="cls-7" d="m197.47,269.96c.09-.07.19-.17.28-.28-.06.04-.14.12-.28.28Z"/>
          <path class="cls-7" d="m197.68,270c-.06.08-.1.15-.15.21.05.07.1.06.15-.21Z"/>
          <path class="cls-7" d="m197.99,269.28c-.07.15-.15.28-.24.41.05-.04.08-.05.09-.03.03-.08.08-.19.15-.38Z"/>
          <path class="cls-7" d="m148.44,260.67s-.02.04-.03.06c.22.22.17.12.03-.06Z"/>
          <path class="cls-7" d="m188.35,240.31s.02,0,.03,0l-.02-.04-.02.03Z"/>
          <path class="cls-7" d="m187.49,239.96c.62-.16.74.04.87.31l.63-1.12c-.51.26-1.01.53-1.5.81Z"/>
          <path class="cls-7" d="m157.15,240.31l.69-.11c-.11.97-.61,1.12.15,1.18-.42-.52-.05-.96.39-1.33.43-.36.86-.73.5-1.31h.48c-.1.05-.07.13-.16.18.97.07-.1-1.14.88-1.52.36-.1.66-.05.54.21l.5-.7c.21-.09.27.14.07.24.32-.23.67-.41,1.01-.62v.04c.07-.26.28-.73.4-.94.36.04-.08.2.06.32.16-.19.31-.4.48-.59.39.22,0,.74-.41.9.56.48.63.35.77.11.14-.22.36-.54,1.11-.39l-.51.37c.64.59.98.17,1.74.39-.2-.19-1.66-.68-1.11-1.24.22.03.48-.02.76-.4.15.46.47.26.91.11l.14.63c.43-.3.31-.61.53-.96.56-.08.77.37.98.77.89-.03-.76-.69.26-.96.79.15,1.24-.26,2.12-.68.55.19-.06.39.14.57l.43-.53c.12,0,.09.16.07.24.39-.22,0-.64.63-.85.08-.35.42-.13.82.12.4.27.86.52,1.27.14.18.19-.12.39-.07.64,1.09-.47.93-.36,1.9-.92l.69.53c-.48-.56.31-1.01,1.06-1.37-.16-.26-.3-.49-.41-.6.38-.06.76-.12,1.13-.13.1.14-.05.32-.28.54.08-.03.16-.07.22-.1.32.33.04.63-.29.92-.09-.16-.19-.32-.28-.48-.33.34-.64.73-.66,1.11.08-.06.21-.11.36-.12-.08.09-.14.18-.13.25.02.08.15-.06.34-.18l.07.75.11-.26,1.13.75c.27-.12.54-.26.82-.39.28-.12.56-.23.87-.33.61-.18,1.3-.32,2.08-.15-.55.31-.41.75-.67,1.31-.12-.76-1.18-.14-1.83-.53.35.2.17.45.04.51l1.47-.1c-.22.46.13.44.35.8.16-1.03,1.19-.17,1.83-.2-.13.31-.4.56-.97.2.31,1,1.43-.66,1.76.31-.15-.08-.2-.17-.34-.06.48-.06,1.18.65.83.78l-.14-.08c.22.17.5.36.82.54.31.2.63.42.95.58.64.34,1.29.5,1.62.24-.06.09-.76.69-.93.79,1.09-.32,2.22-.57,3.42-.77-.63.41-1.35,2.1-2.31,1.8.11.26.28.53.83.74-.04-.2.44-1.07.66-.94-.12,1.07.01.66.05,1.73-.06-.3.99-.85,1.26-.5-.18.06-.83.76-1.03.73.52,0,1.05.03,1.54.09-.32-.09-.77.56-.88.94.11-.22.52.73.77.88l-.05-.5c.57,1.02,1.98.07,2.59,1.17-.28-.01-1.41.43-1.23,1.01.31-.02,1.1-.12,1.88-.06.78.06,1.61.26,2.07.7l-.2.34c.24.22.49.43.7.67-1-.23-3.33-.77-4.26-1.08-.03.51-.29.29.02.86-.18.34-.57-.1-.66-.26l.45,1.41c.29-.17.57.02.84.21.24.21.47.43.72.3-.38-.45-.87-.83-1.3-1.22.54-.36,2.21.04,2.46,1.2-.15.36-1.19.22-1.39.33.26.04.77.81.65.96l-.5-.31c-.03.63,1.2.65.75,1.54.02.26-.66.93-.26.87.65-.56,2.92-1.26,3.55-1.1-.01.12-.35,1.6-.71,1.97-.53.53-1.51-.39-1.96.07.18-.02.44.17.53.25-.11.29-.58-.01-.41.54.69,0,.12,1.18.61.19.27.55-.01.62.05,1.28.43-.26,1.52.49,1.75,1.11-.17-.03-.39.12-.49.19,0,.31-.02.58-.04.83-.04.25-.1.48-.16.71-.11.46-.21.9-.24,1.46-.17.09-.4.61-.68.35.1.17.3.34.27.68-.68.58.02-.76-.76-.35.39.09.41.93.58,1.46.63-.05.29-1.12.12-1.62.84.08,1.59,1.05,1.78,2.39.02,1.03-.62.31-.53.51-.3.88-.04,1.35.17,1.79.21.43.38.84-.2,1.49-.72.41-1.02-.33-1.43-.32.09-.79.72-1.04.83-1.57l-.41.57c-.11-.3-.11-.83.11-1.07-.54.36-.94,2.9-1.96,3.96.06.29.04.76.33.67l.12-.43c.57-.19.18,1.01.61.59,0,.66.18,1.56-.52,2.18l-.62-.17c.16.08.61-.3.57-.6.05.45-1.39.7-.91,1.45l.68-.3c-.07.68.11,1.75-.56,2.26.71.05.05-.18.97-.25-.99-.06,1.11-1.74-.09-1.55.99-.08.85-.66,1.8-1.03-.19-.07-.46.07-.08-.5-.04-.05-.07-.15-.09-.21.01-.02.02-.02.03-.03l-.04.02s-.02-.05-.01,0c-.15.11-.3.17-.42.17-.27-.51.2-1.44.13-1.86.26-.31.14.24.43.13-.03-.21-.07-.41-.12-.63.43.13,1.06-.71.98.27l.31-.79c.41-.39.75-1.02.7-1.48.2-.37-.22-1.12.03-.69l.06-1.36h.11c.22-.61.11-1.33.13-2.02,0-.7.15-1.39.57-2.12-.09-.45-.2-.91-.04-1.64l.4-.14c-.1-.57.32-1.74-.08-1.97.49-.34.57-1.06.39-1.81-.16-.75-.44-1.52-.43-2.04l-.5.06c-.1-.69-.43-1.3-.83-2.07l-.42.17c-.49-.6-.26-1.86-.7-2.94.19,0,.25.3.22.53.12-.41.07-.78-.07-1.12-.15-.33-.41-.61-.66-.89-.52-.55-1-1.06-1.01-1.77-.3-.19-.37-.4-.39-.65.02.02.04.04.06.05-.01-.03-.04-.07-.06-.11,0-.16,0-.33-.02-.5-.02.17-.04.32-.01.44-.13-.2-.37-.48-.65-.73l.32-.39s-.03-.04-.06-.06c-.04-.4-.34-.11-.54.25-.15-.11-.34-.18-.51-.22.47-.68-.76-.58-.33-1.39-.23.03-.56-.28-.92-.55-.39-.24-.82-.43-1.2-.22.08-.08.05-.19.18-.06-.18-.35-.38-.7-.78-.79l.33-.55c-.38-.03-.78-.03-1.18-.02-.11-.61-.13-.92.58-.91-1.42-.31-.94-.49-2.18-.63l.29-.28c-.31-.22-1.11-.15-1.09-.55-.19-1.18-3.34-2.41-5.05-3.89-.04.63-.21.39-.44.12-.23-.26-.52-.58-.73-.17-.02-.3-.25-.55.17-.65-1.15-.12-1.46-1.04-2.44-.48-.05-.3.35-.33.28-.51-.11.03-.42.14-.49-.05-.07-.19.22-.18.43-.25-1.16-.25-1.47.55-1.72,1.3-.46-.52-.76-.52-1.26-.06-.14-.29-.43-.61.28-.59-.37-.09-2.34-.76-2.44-.1-.11-.17-.54-.08-.65,0-.87-.08-.95-.14-1.81-.13l.24.12c-.34.74-.7.17-1.39.3l.02-.08c-1.61-.45-.65.25-2.27-.2l.14.46c0,1.04-1.43-.4-2.28.14l.37.22c-.4.41-1.64-1.05-2.2-1.05-.13-.06.14-.18.27-.29-1.49-.24-.01.65-.94,1.04-.28-.27-.02-.9-.69-.76-.43-.12-1.5,1.68-2.57,1.46.29.15.57.31.23.68-.57.39-2.18-.08-2.34.98-.11-.02-.17-.06-.21-.11-.36.47-1.32,1.21-1.34,1.75-.67-.56-1.23.13-1.71.75-.5.61-.85,1.26-1.34.68l-1.17,1.18-.08-.14c-.85.66-.8,1.24-.78,1.74-.24.11-.23-.12-.27-.19-1.28.92-1.29,1.17-1.45,2.62l-.48-.18c.01.22-.49.55-.97,1.08-.48.53-1.09,1.18-1.16,2.01-.04-.04-.11-.11-.12-.25-.1.91-.9,1.66-1.4,2.44-.49.78-.8,1.51-.04,2.08,0,.39.08.8.12,1.2.49-1.33.7.42,1.13-.06-.03.54-.88,1.22-.8.55l.11-.08c-.84-.48-.78,1.62-1.36,1.46-.5,2.79-1.07,5.58-.86,8.32l.69-.38c.01.31.06.61.09.92-.13.26-.52.41-.59-.27-.36.41.51,1.07.67,1.06-.09,1.34-.92-.37-.88.03l.14.54.07-.14c.38.39.64.38.81,1.15-.02.52-.37.36-.35.56-.05.01-.06.08.06.31l.24,1.18.44-.62c.4.43.26,1.07.74.36-.38.52-.07,1.58.29,2.57.41.97.96,1.84.91,2.13.66.48,1.08,1.05,1.48,1.84-.01-.25.47-.7.79-.03-.62.24-.59.63-.4,1.06.2.43.5.92.3,1.46.09-.42.45,0,.81.36.37.36.78.61.83,0,.34.54-.36.35-.27.92,1.38.8,2.1,2.71,3.76,3.75.13-.12.04-.52.53-.49l.28,1.31c.37.15.83-.6,1.08.26,0-.17,0-.43.24-.35,1.32,1.35,3.11,2.11,4.91,2.7.91.28,1.79.63,2.69.92.89.33,1.76.78,2.66,1.29-.46-.42-.11-.4.28-.35-.24-.12.07-.43.06-.67.48.29.97.61,1.47.88.34-.64,1.7.04,1.89-.58l-.5.09c.66-.71-.81-1.7-.62-2.65-.37.42-.79.07-1.23-.28-.45-.34-.92-.64-1.57-.12-.2-.23.26-.27.18-.51-.35.38-.69.36-1.24.03l.09-.08c-1.69-.3-2.27-.96-3.88-1.92l-.07.49c-.34-.24-.36-.41-.48-.6-.73.44,1.02.54.31,1.07-.06-.56-.7-.88-1.32-1.2-.62-.33-1.16-.76-1.03-1.3-.53-.33-.13.56-.66.23l.02-.33-.35.24c-.32-.26-.26-.72-.13-.92.06.08.26.11.36.15-.21-.6-1.24-.78-1.32-.98l.36.5c-.37-.2-.76-.43-1.12-.72-.34-.3-.69-.62-1.04-.93l-.53-.45c-.16-.16-.33-.32-.5-.47-.34-.3-.7-.56-1.1-.77l-.09.24c-1.15-.72-.44-.96-1.44-1.95h.07c-.36-.08-.64-.35-.82-.69.4.16.09-.84.57-.6-1.08-.94-.66-.38-1.84-.79l.24-.37c-.43-.13-.6-.08-1.01-.69.54.39.32-.65.98-.24.02-.42-.07-.72-.21-.96-.13-.25-.28-.45-.44-.63-.3-.36-.53-.66-.08-1.16-1.21-.31-.1,1.38-.44,1.1-.2.43-.92-.27-.99-.76-.17-.47,1.02-1.18.71-2.28.02.11.1.1.13.21.16-.48-.6-.74-.24-1.36-.66-.19-.07-.69-.86-.65l.34,1.05c-.29-.56-1.3-1.02-1.01-2.11.17.06.43.34.57.54.19-.32-.26-.55-.03-.89.76,0,.36,1.29,1.05,1.83.29-.36-.75-1.12.15-.92-.58-.15-.59-.45-.57-.77.05-.33.13-.7-.31-1.07l.48.02c-.08-.12-.32-.36-.32-.6l.64.38c-.55-.61.37-1.21.15-1.79-.04,1.24-.6.27-.94.81-.59-1.61,1.27-.88,1.13-2.58.04.23-.33.85-.53.46.1-.33.35-.74.63-.9.08-1.13-.51.11-.73-.41.63-.31-.15-.59-.25-1.15l.47.08c.55-1.23-.92-.55-.27-1.66l.52.65v-.64s.49.26.49.26c-.21-.74-.11-.95.27-1.51-.38.04-.8-.35-.61-.93.41-.29.35.37.58-.44.22.29.5.61-.04.8.14.09.22.27.36.36.46-.29.43-.96.53-1.25-.06.1-.13.22-.21.26-.09-.46-.13-.91-.14-1.36.25-.1.31.1.38.29.06-.24-.07-.48.05-.83.31.26.68.42.64.93l.09-1.2c.18,0,.67-.29.73-.09.52-.39.11-1.68.83-2.21-.04-.08-.04-.19.02-.36.57-.56,1.27-.85,1.51-1.86l.87.09c.36-.64-1.13-.07-.51-1.15.43-.8.64.18.99.11.05-.52.14-1.57,1.1-1.68-.11.28-.32.34-.47.54Zm7.56-4.8c-.13.16-.35.57-.57.35,0-.59.24-.39.57-.35Zm13.86-1.67c-.17.12-.36,0-.55-.25.18,0,.37.07.55.25Zm20.11,32.73s0-.02-.01-.03c.34-.38.21-.25.01.03Zm-.53.84c.03.12.09.13.17.12-.09-.11-.02-.31.09-.54-.14.02-.27.11-.26.42Zm-52.37-3.35l.08-.21c.24.37.09.29-.08.21Z"/>
          <path class="cls-7" d="m176.85,234.12c-.04-.09-.03-.18-.03-.27-.09.07-.1.16.03.27Z"/>
          <path class="cls-7" d="m153.67,244.6l-.02.02s.03.05.06.07l-.03-.09Z"/>
          <path class="cls-7" d="m195.54,253.43c.04-.18.12-.29.2-.37-.12.01-.2.11-.2.37Z"/>
          <path class="cls-7" d="m196.58,272.41l.22-.61c-.14.27-.29.31-.43.4.1.05.31.03.21.2Z"/>
          <path class="cls-7" d="m191.05,274.77c-.01.1-.11.13-.13.24l.18.14c.23-.28.26-.58-.05-.37Z"/>
          <path class="cls-7" d="m194.92,272.05c-.38-.19-.42.23-.62.6.01-.02.03-.04.04-.06.4.43.51-.05.58-.54Z"/>
          <path class="cls-7" d="m194.26,272.73c-.06.11-.13.23-.22.32.16.17.13-.1.22-.32Z"/>
          <path class="cls-7" d="m197.94,268.66c-.18.14.42.33.22.37.38.42.01-1.51-.22-.37Z"/>
          <polygon class="cls-7" points="193.63 271.6 194.13 271.75 193.91 271.34 193.63 271.6"/>
          <path class="cls-7" d="m195.53,269.02l-.4.52c.08.03.09.13.08.24.19-.35.47-.7.33-.76Z"/>
          <path class="cls-7" d="m195.2,269.78c-.1.18-.21.35-.19.49.05-.1.17-.31.19-.49Z"/>
          <polygon class="cls-7" points="193.96 270.77 194.15 270.67 194.41 270.3 193.96 270.77"/>
          <path class="cls-7" d="m197.87,262.48l-.03-.72c-.16-.1-.29.07-.26.34.09.19.12.46.3.38Z"/>
          <path class="cls-7" d="m196.04,264.19c.15-.15.26-.13.44-.19l-.59-.18.15.37Z"/>
          <path class="cls-7" d="m196.37,262.26c-.16-.1-.34-1.04-.43-.21.17.1.18.78.43.21Z"/>
          <polygon class="cls-7" points="197.03 252.1 197.08 252.26 198.07 252.03 197.03 252.1"/>
          <path class="cls-7" d="m191.46,245.04c.17.76.62-.19.71.55.3.03-.08-.61.19-.56-.45-.26-.45-.54-.91,0Z"/>
          <path class="cls-7" d="m192.37,245.03c.07.04.15.08.25.12-.12-.08-.2-.11-.25-.12Z"/>
          <polygon class="cls-7" points="170.79 285.37 171.36 285.61 171 285.25 170.79 285.37"/>
          <path class="cls-7" d="m171.92,284.67l.13.66.35-.57c-.13.02-.38.07-.47-.08Z"/>
          <path class="cls-7" d="m166.35,236.36v-.16c-.12-.14-.23-.13-.45-.1l.45.26Z"/>
          <polygon class="cls-7" points="160.44 238.47 160.54 238.43 160.05 238.04 160.44 238.47"/>
          <path class="cls-7" d="m156.84,242.33c.15-.15.24-.4.42-.53-.28.37-.98.06-.42.53Z"/>
        </g>
        <g>
          <path class="cls-7" d="m173.58,174.97c-1.51-.08-.97.36-1.19.43,2.51-.03,1.13-.54,1.19-.43Z"/>
          <path class="cls-7" d="m198.3,178.1l-.47.02c1.21.27,2.43.51,3.64.81-1.05-.3-2.12-.55-3.17-.83Z"/>
          <path class="cls-7" d="m219.34,188.44c-.35-.47-1-.96-1.8-1.51-.8-.55-1.76-1.15-2.83-1.69-2.09-1.15-4.49-2.21-6.32-3.25l-.56-.43-1.96-.26c2.34.98,5.01,2.16,7.43,3.45,2.44,1.25,4.59,2.63,6.03,3.7Z"/>
          <path class="cls-7" d="m228.08,197.38c-.18-.36.34.05.4.1.04.06-.32-.33-2.48-2.07.18.21.24.27.35.39.37.34.92.74,1.74,1.58Z"/>
          <path class="cls-7" d="m226.34,195.8c-1.85-1.58,1.05,1.22,0,0h0Z"/>
          <path class="cls-7" d="m234.38,203.64c-.76-.76-1.52-1.51-2.33-2.21.37.57,2.2,2.74,1.42,2.03,2.24,2.38,1.93,1.78.91.19Z"/>
          <path class="cls-7" d="m236.74,205.64c-.37-.42-.74-.83-1.14-1.23.14.27.42.61,1.14,1.23Z"/>
          <path class="cls-7" d="m233.1,201.9c.85.82,1.66,1.68,2.5,2.52-.22-.43-.08-.62-1.13-1.18.34.09-.25-.33-1.37-1.34Z"/>
          <path class="cls-7" d="m231.8,200.37c-.57-.7-1.23-1.51-1.49-1.83-.25-.32,0-.27,1.22.82-2.23-2.15-3.32-2.92-3.23-2.68.04.12.36.51.96,1.13.59.62,1.48,1.44,2.54,2.56Z"/>
          <path class="cls-7" d="m220.74,188.53c-.63-.53-1.26-1.08-1.92-1.57l-1.93-.95c.48.24,1.46.92,2.31,1.51.84.6,1.54,1.15,1.54,1.01Z"/>
          <path class="cls-7" d="m245.21,220.32c.23.11-.13-1.14-.07-1.45-.4-.69-.87-1.33-1.31-1.99.55,1.09,1.5,3.19,1.37,3.44Z"/>
          <path class="cls-7" d="m245.14,218.87c.61,1.02,1.25,2.03,1.84,3.06-1.4-2.86-1.79-3.31-1.84-3.06Z"/>
          <path class="cls-7" d="m237.72,205.6l-1.02-1.08-1.07-1.03c-.72-.68-1.41-1.38-2.15-2.03,1.69,1.62,3.38,3.27,4.95,5.03l-.71-.89Z"/>
          <path class="cls-7" d="m250.32,232.77l-.97-1.78c.54,1.07,1.13,2.12,1.59,3.23-.21-.48-.38-.97-.62-1.45Z"/>
          <path class="cls-7" d="m252.61,241.41c-.54-1.39-.13,2.09-.58.59.23,1.18.52,2.27.78,3.29.23,1.03.47,1.99.7,2.9-.19-.98-.34-1.99-.46-3.1-.17-1.1-.32-2.3-.44-3.67Z"/>
          <path class="cls-7" d="m254.12,251.28c-.16-.98-.31-2-.61-3.09.23,1.03.36,2.06.61,3.09Z"/>
          <path class="cls-7" d="m249.31,227.54c0,.3.04.85.57,2.77-.02-.48-.02-.98-.06-1.46-.16-.4-.33-.85-.51-1.31Z"/>
          <path class="cls-7" d="m249.82,228.79v.05c.51,1.43.82,2.44.97,2.87-.13-.37-.39-1.25-.97-2.92Z"/>
          <path class="cls-7" d="m249.19,227.21c.05.12.08.21.13.33-.01-.14-.03-.22-.13-.33Z"/>
          <path class="cls-7" d="m242.84,213.51c1.34,1.64,3.71,5.4,1.91,1.49-1.03-1.16.07,1.02-1.91-1.49Z"/>
          <path class="cls-7" d="m249.04,225.38c-.47-1.18-.98-2.34-1.47-3.52-.07.12.06.81-.47-.09l1.94,3.6Z"/>
          <polygon class="cls-7" points="249.85 227.07 249.04 225.38 249.52 226.71 249.85 227.07"/>
          <path class="cls-7" d="m253.81,244.82c.21.79.36,1.64.5,2.53.15.89.29,1.84.36,2.85-.02-1.09-.15-2.18-.26-3.27-.12-1.09-.23-2.18-.44-3.23-.19-.27-.59-1.15-.16,1.13Z"/>
          <path class="cls-7" d="m252.32,236.92c.03.11.07.25.11.35-.02-.23-.04-.4-.11-.35Z"/>
          <path class="cls-7" d="m254.07,270.05c.04-.11.08-.2.12-.31-.02-.03-.04-.05-.06-.08l-.05.39Z"/>
          <path class="cls-7" d="m253.99,243.32c-.21-1.62-.46-2.57-.82-3.44.35,1.17.54,2.45.81,3.81.08.12.13.14.01-.37Z"/>
          <path class="cls-7" d="m254.57,256.78c.07-.84.12-1.81.16-2.82-.11.83-.28,2.52-.16,2.82Z"/>
          <path class="cls-7" d="m252.43,237.83c-.02-.08-.05-.15-.07-.23.03.54.06.47.07.23Z"/>
          <path class="cls-7" d="m252.43,237.83c.25.8.5,1.42.74,2.04-.26-.96-.51-1.85-.75-2.61.02.2.02.41,0,.56Z"/>
          <path class="cls-7" d="m255.59,276.57c-.3-.38.31-4.73,1.14-8.45.18-3.75-1.43-1.42-2.55,1.61.16.14.34.16-.11,3.91.2-.63.75-2.66,1.09-4.17.34-1.5.62-2.46.6-.84-.06.63-.11,1.17-.15,1.63-.07.46-.14.84-.2,1.17-.12.65-.23,1.08-.34,1.42-.23.67-.36,1.05-.77,2.21.48-.96.29.63.1,2.37-.16,1.75-.52,3.59,0,3.16.35-1.45.61-2.93.85-4.4.13-.06-.06,1.57.32.38Z"/>
          <path class="cls-7" d="m254.96,262.64c.03-.51.05-1.03.04-1.54-.15,1.75-.42,3-.93,5.26-.13,2.55-.05,3.1.06,3.3l.5-3.76.32-3.78.02.53Z"/>
          <path class="cls-7" d="m255,254.18c.46,1.18.74,4.92,1.15,2.63-.14-4.58-.42-3.2-.81-5.9.58,7.32-.32-2.09-.29,3.21-.09-1.43-.28-2.71-.37-3.93.03,1.32.12,2.58.05,3.77,0-.07.02-.11.02-.17v-.03s0,0,0,0c.05-.32.08-.42.05-.07,0,.02.01.11.01.15.06.05.12.18.17.32-.04,2.12-.1.34-.17-.32-.02-.02-.04-.08-.07-.09,0,0,0,.02,0,.03l.21,3.65.03,3.66c.09-1.55.19-3.49,0-6.92Z"/>
          <path class="cls-7" d="m247.49,218.02c.07.22.04.23.02.26.27.41.38.55-.02-.26Z"/>
          <path class="cls-7" d="m248.67,220.88c-.3-.46-.66-.79-1.42-2.38-.58-1.42.19-.09.28-.23-.57-.91-2.04-3.13-.64-.1l.29.44c.31.68.62,1.43.91,2.15.28.72.49,1.45.69,2.05.38,1.22.58,2.03.44,1.81,0-.95-.07-1.76-.55-3.75Z"/>
          <path class="cls-7" d="m253.71,237.48l.8,2.98.65,3.02-.2-3.17-.18.2c-.71-3.45-.8-2.65-1.07-3.03Z"/>
          <path class="cls-7" d="m253.73,270.7c-.11-.29-.2-.57-.32-.86l.02,3.56.29-2.69Z"/>
          <polygon class="cls-7" points="252.17 278.43 251.86 278.05 251.53 280.11 252.17 278.43"/>
          <path class="cls-7" d="m18.88,94.07c.25-.57.47-1.16.74-1.72-.39.79-.59,1.33-.74,1.72Z"/>
          <path class="cls-7" d="m13.18,106.31l.05.38c.15-.61.18-.88-.05-.38Z"/>
          <path class="cls-7" d="m89.45,318.01c-2.11-1.63-4.35-3.6-4.29-3.08l.46.8c1.64.85,2.84,1.6,3.83,2.28Z"/>
          <path class="cls-7" d="m7.47,214.24c.02.26.03.53.05.8.32.59.62,1.14.9,1.64-.29-.73-.66-1.55-.94-2.43Z"/>
          <path class="cls-7" d="m5.29,212.81l-.53-3.54c.08.8.25,1.94.53,3.54Z"/>
          <path class="cls-7" d="m64.97,37.09l1.47-1.67c-2.73,2.07-1.39,1.33-1.47,1.67Z"/>
          <path class="cls-7" d="m199.48,335.56c-1.09.29-2.06.55-2.96.78-.9.21-1.71.42-2.47.62,2.67-.45,4.86-.83,5.42-1.41Z"/>
          <path class="cls-7" d="m20.69,100.8c.42-1.03.55-1.49.45-1.51-.44,1.06-.65,1.67-.45,1.51Z"/>
          <path class="cls-7" d="m187.76,338.41c.4-.04.78-.07,1.19-.11.79-.21,1.59-.42,2.43-.65.84-.21,1.73-.41,2.69-.69-.98.21-2.04.36-3.11.59-1.07.23-2.14.54-3.2.86Z"/>
          <path class="cls-7" d="m96.59,119.91c.06.18.14.39.19.55.08.03-.03-.21-.19-.55Z"/>
          <path class="cls-7" d="m150.05,171.24c-.75-.19-1.97-.53-3.11-.85.55.19,1.49.45,3.11.85Z"/>
          <path class="cls-7" d="m238.31,306.74c.95-1.38.12-.24,0,0h0Z"/>
          <path class="cls-7" d="m244.31,300.89c-.14.34-.25.6-.18.69-.02-.18.07-.4.18-.69Z"/>
          <path class="cls-7" d="m171.16,342.53c-.05,0-.09,0-.15,0,.51.1.42.08.15,0Z"/>
          <path class="cls-7" d="m239.93,304.8c-.41.48-.86,1.05-1.34,1.67.23-.26.64-.77,1.34-1.67Z"/>
          <path class="cls-7" d="m239.56,304.96c.35-.46.62-.82.88-1.17.06-.21-.08-.09-.88,1.17Z"/>
          <path class="cls-7" d="m236.89,308.58c.58-.76,1.17-1.43,1.69-2.11-.21.25-.32.35-.27.27-.3.39-.72.94-1.42,1.84Z"/>
          <path class="cls-7" d="m146.47,7.68c-.11.02-.24.05-.36.07-1.57.7-.86.44.36-.07Z"/>
          <path class="cls-7" d="m51.15,294.51c.06.05.1.08.16.12-.06-.06-.13-.14-.18-.19l.02.07Z"/>
          <path class="cls-7" d="m46.57,290.21c2.25,1.56,3.22,2.72,4.56,4.23-.22-.76-.37-1.58-.55-2.36l-4.01-1.87Z"/>
          <path class="cls-7" d="m36.12,66.76l-2.97,3.3c1.35-2.32,2.64-4.25,3.27-5.18.65-.91.51-.94-.99.54.17.34-.38,1.37-1.3,2.75-.46.69-1.01,1.47-1.6,2.29-.3.41-.61.83-.92,1.26-.3.44-.6.89-.9,1.33-1.2,1.79-2.4,3.58-3.25,4.99-.83,1.43-1.25,2.53-1.05,2.83l-1.77,2.33c.45-.7.45-.86.9-1.56-3.55,4.49-1.37,4.08-5.06,10.34-1.3,2.17-2.2,3.71-1.6,2.07l-2.2,5.22c-.75,1.46-.78,1.01-.04-.45-.65,1.28-1.16,2.63-1.73,3.95l-1.67,3.97v-.07c-.33,1.2-.96,3.95-1.33,5.25-.96,1.97.25-1.07-.1-.61-.45,1.53-.95,3.04-1.36,4.57-.47.86-.48.33-.23-.81.3-1.12.87-2.84,1.48-4.38-1.42,1.84-1.71,2.81-2.13,4.4-.35,1.62-.89,3.84-2.7,8.32.35-1.47.81-2.9,1.21-4.36-.8,1.27-1.49,2.75-2.06,4.56-.58,1.8-1.21,3.88-2.12,6.3.57-1.13,3.88-9.57,2.83-4.47-.47,1.38-1.07,3.22-1.49,6-.47-.09-.96,2.61-1.67,5.95l-.58-.36c-.34,1.83-.32,2.7-.3,3.38.03.68.1,1.17.05,2.27-.38,2.02-.73,3.23-1.06,4.04-.32.81-.58,1.24-.85,1.69-.91,6.56,1.34-4.42.51,3.35-.22,1.35-.42,2.61-.56,3.84-.09,1.23-.16,2.43-.21,3.67s-.08,2.5-.11,3.87c-.03,1.37.07,2.84.11,4.48-.31,3.83-.37-.68-.59.69l.43,3.41c-.03.83-.18.56-.26.43.24,2.86.64.24.92,4.72.18.3.23,1.02.2,2.03-.01,1.01-.15,2.3-.14,3.73-.01,1.43-.02,2.99.06,4.54.08,1.55.22,3.09.62,4.45,0,1.38-.47-.61-.67-.17.74,3.76,1.06,5.37,1.35,6.81.34,1.43.73,2.68,1.62,5.69l.26,2.66c.09.89.25,1.76.37,2.64-.41-3.92,1.27.85,2.7,4.96-.09-1.4-.15-2.59-.23-3.38l.94,3.33c.31,1.11.72,2.19,1.08,3.29.13.83-.27.22-.84-.8.18.44.36.85.49,1.18.45,2.44-.26,1.32-1.09-.31-.1-.85-.2-1.69-.3-2.51-.76-1.57-1.54-3.05-1.83-2.61.17.43.43,1.26.68,2.19-.2-.41-.36-.67-.38-.45,0,.24.26.93.75,1.99l-.25,1.72.38.3,1.04,4.47c.32,1.5.81,2.95,1.21,4.43.71,1.49,1.4,2.93,2.11,4.4.77,1.43,1.57,2.9,2.41,4.46.83,1.57,1.67,3.26,2.7,5.08,1.02,1.83,2,3.89,3.22,6.16-1.62-2.06-1.02-.12-1.64.03-.32-1.42-1.19-3.23-2.28-5.29-.53-1.04-1.17-2.12-1.68-3.31-.53-1.18-1.05-2.41-1.51-3.68.97,2.64.47,2.18.11,1.55,1.3,2.94,2.88,5.76,4.37,8.6-.54.01.46,2.04,1.46,4.36.01-1.07.98.45,2.2,2.65,1.16,2.23,2.85,5,3.94,6.62-.17.38-.94-.26-3.24-4.45.97,2.47,2.09,3.81,3.19,5.11.56.65,1.1,1.31,1.66,2.08.58.76,1.15,1.65,1.71,2.82-.63-.97-.93-1.53-1.32-1.83.86,1.07,2.13,3.02,3.06,4.58.9,1.57,1.58,2.64.99,2.1-.22-.32-.46-.62-.67-.95,1.07,1.61,2.49,3.59,3.99,5.7.73,1.07,1.56,2.11,2.4,3.14.84,1.03,1.67,2.05,2.47,3.03.4.49.8.96,1.18,1.43.4.45.8.87,1.18,1.28.77.82,1.48,1.55,2.1,2.18,1.25,1.25,2.16,2.04,2.51,2.12-.03.13-1.42-.08-1.86-.32l1.4,1.07,1.45,1.01,2.89,2c.96.66,1.91,1.33,2.88,1.97l2.97,1.84c-1.39-.31.79,4.17-4.14.03,1.27,1.34,2.82,3.03,5.84,5.49-.88-.91-1.56-2.93-.28-1.79,2.95,3.74,2.15,2.47,6.09,6.82-.66-.68-.41-.89.28-.69.69.2,1.87.74,3.02,1.68-.47-.15-.51,1.04-1.44.46l3.26,1.85c1.08.62,2.16,1.23,3.28,1.78-1.62-.9-.84.58.33,1.8-.49-.64,5.18,3.8,6.98,4.68-.83-.64-1.68-1.27-2.5-1.92,3.46,2.35,5.43,3.12,7.36,3.88,1.98.69,3.96,1.32,7.51,3.4-.49-.15-1.19-.14-1.33.18-.13.3.27,1,2.13,2.01,1,.19,3.22.55,6.01,1.21,1.38.35,2.97.63,4.59,1.08,1.63.42,3.31.99,5.02,1.56l1.16.81,5.29,1.68c-1.74-.24-5.07-.76-8.59-1.54-3.47-.89-7.26-1.78-9.78-2.76,2.69,1.64.57.82,4.87,2.73,1.4.95-2.56-.59-3.79-1.23,1.61.87,3.3,1.59,4.94,2.4,1.66.77,3.29,1.62,5,2.28-.18-.82,8.04,2.5,7.87,1.72-1.92-.51-3.77-1.2-5.67-1.8-1.89-.61-3.78-1.22-5.62-1.97-.16-.79,7,1.08,14.23,3.61,1.77.88-1.78.66-1.7.92,1.03.11,7.09,1.96,7.76,2.22-1.09-.19-2.18-.35-3.25-.61,2.01.81,3.79,1.01,5.63,1.37,1.85.34,3.76.8,6.22,1.65,1.73.44,5.02,2.05,5.41,1.73-2.7-1.41-2.7-3.85-.72-3.98.15.05.77.25,1.66.53.9.24,2.05.55,3.25.88,2.41.63,4.98,1.44,5.96,1.7,1.4.48.27.7-.93.9-1.19.17-2.44.27-1.25.75.07-.08.51-.1,1.02-.11.51-.02,1.09-.03,1.43-.02,1.84.39-.85.47,3.2.9.38-.3,2.43-.02,3.61.15.59.08.96.1.8.06-.17-.03-.87-.17-2.43-.54,1.98.18,3.03.26,4.16.4,1.13.14,2.35.31,4.68.47-.73-.28.34-.55,2.08-.8,1.74-.3,4.14-.55,6.11-.6-.24.17.65.42,1.08.53,1.01.05,1.96.04,2.87.02.91,0,1.77-.01,2.61-.02,1.66-.08,3.2-.14,4.73-.24,1.52-.16,3.02-.27,4.61-.5,1.58-.28,3.27-.47,5.11-.94.36,0,1.44-.15,2.26-.23.82-.07,1.35-.13.63.24,1.03-.42,1.94-.9,4.18-1.59,2.24-.45,1.02,0-.35.48-1.38.43-2.9.92-1.12.78.2-.4,5.68-2.34,8.65-3.88-.6-.11-2.38.63-4.44,1.43-1.03.41-2.13.84-3.17,1.25-1.05.38-2.04.74-2.83,1.02-.24-.86,5.19-3,12.08-6.6.69-.34,1.25-.61,1.71-.81.44-.23.78-.39,1.04-.5.51-.22.7-.24.75-.18.1.12-.38.54.08.24,5.22-2.61,7.05-4.4,8.74-5.85.82-.77,1.59-1.49,2.66-2.34.53-.43,1.11-.92,1.83-1.46.71-.54,1.55-1.12,2.49-1.86,3.23-2.09.83.69,1.72.43-1.83,1.78-3.48,2.86-4.9,3.87-1.5.92-2.79,1.75-4.23,2.68,1.24-.68,2.41-1.48,3.62-2.21-.61.54-1.58,1.33-2.61,2.11-1.06.73-2.17,1.43-2.99,1.87,1.49-.67,5.75-3.28,10.13-6.96,4.42-3.63,8.86-8.32,11.88-11.74.88-1.38,2.41-3.71,1.45-2.78l-1.71,2.3c-1.96,1.79,2.85-4.6.46-1.88,2.07-3.23,4.1-6.96,6.86-11.53l1-.61c-.17.05-2.01,2.89-2.61,4.29.22-.52.63-1.2,1.13-1.96.51-.76,1.09-1.62,1.62-2.53.53-.9,1.08-1.8,1.47-2.66.38-.87.65-1.66.72-2.3-.66,1.08-1.25,2.18-1.97,3.22,1.41-3.56,2.63-8.1,4.2-12.5-1.26,1.83-.27,1.06-2.03,3.95.93-1.19-.14,1.6-1.21,4.16-.57,1.26-1.12,2.47-1.36,3.13-.27.64-.17.76.53-.19-1.13,1.36-1.87,2.63-2.69,4.01-.88,1.34-1.73,2.86-3.26,4.51.24,0,1.19-1.11-1.03,2.11-.05.18-.23.56-.35.8-.07.09-.1.13-.17.21.05-.06.09-.1.14-.16-.07.16-.08.17.05-.06.63-.7,1.13-1.28,1.38-1.48-.31.96-1.45,2.69-2.59,4.43-1.23,1.69-2.47,3.39-3.1,4.25-1.61,1.71.47-.89-.54-.07-.61.87-1.19,1.77-1.85,2.61-.56-.07-4.81,3.97-1.22-.18-.57.59-1.13,1.19-1.71,1.77l-1.79,1.69c-1.11.94-2.51,1.95-3.77,3.02-1.31,1.03-2.57,2.02-3.48,2.85-.97.63-2.09,1.58-2.79,2.19-.71.6-1.01.84-.25.15l-3.18,2.2-3.28,2.05-.12-.06c-3.38,1.76-6.86,3.61-10.65,5.12-3.8,1.48-7.88,2.67-12.23,3.17-1.25.28-2.53.57-4.02.87-.76.1-1.56.21-2.45.33-.89.12-1.85.23-2.93.26l-.87-.32c-1.63.24-4.11.18-6.34.17-2.27-.12-4.3-.2-5.02-.02-.89-.3-2.35-.43-4.12-.61-1.77-.21-3.85-.37-6.01-.51-2.16-.08-4.38-.41-6.43-.61-2.05-.23-3.93-.41-5.36-.76l-.3.46c-1.99-.37-3.95-.69-6.03-1-2.07-.39-4.26-.81-6.73-1.28l.2.51c-4.34-.63-10.73-3.21-17.21-5.45.5-.01,2.13.59,3.27,1.08-3.75-1.71-7.79-3.21-11.81-4.57-1.97-.77-3.93-1.53-5.8-2.32-.47-.2-.93-.41-1.39-.61-.44-.23-.88-.46-1.31-.69-.86-.47-1.69-.95-2.48-1.46-1.72-.71-2.92-1.33-3.99-2.09.15.09.29.16.41.21-.16-.1-.41-.24-.66-.38-.67-.47-1.37-.96-2.12-1.49.62.48,1.22.93,1.76,1.29-1.24-.71-3.15-1.74-5.06-2.7l-.54-.86c-.15-.09-.27-.16-.42-.25-1.66-1.28-1.53-.71-.78.2-.94-.51-1.82-.96-2.53-1.28-.51-.79-1.72-1.48-2.99-2.23-1.26-.76-2.54-1.65-3.25-2.65-.35-.13-1.08-.56-2.01-1.14-.93-.58-2.05-1.3-3.11-2.09-2.16-1.53-4.33-2.99-5.04-3.02.01-.13-.45-.56.46.15-1.81-1.55-3.5-3.25-5.29-4.45l-.36-1.12c-1.52-.9-2.9-1.96-4.37-2.94-2.04-2.46-2.82-3.51-.23-1.69-3.02-2.31-4.04-3.47-5.08-4.41-.51-.48-.99-.94-1.65-1.53-.66-.6-1.53-1.32-2.71-2.44l.5-.03c-1.51-1.74-4.36-4.16-4.98-5.46-.65-1.13-1.95-2.96-3.66-5.22-.88-1.11-1.72-2.44-2.7-3.8-.95-1.38-2.02-2.81-3.02-4.35-4.07-6.15-8.23-13.45-10.82-19.53.08,1.39-.56,0-1.21-1.83-.64-1.82-1.41-4-1.93-4.05-.07-.81-.68-2.55.42-.7-.38-.75-.72-1.46-1.03-2.14-.27-.69-.53-1.35-.77-1.97-.46-1.25-.88-2.37-1.27-3.44-.83-2.11-1.44-4.01-2.55-6.08.02-.82.84,1.23.78.53-.23-.49-.91-1.94-.98-2.66-.06-.7.54.86.99,1.82-.56-1.62-1.05-2.85-1.46-3.8-.38-.97-.71-1.64-1.01-2.13-.6-.96-1.08-1.14-1.53-1.27-.3-1.74-.58-3.01-.93-4.15-.3-1.15-.68-2.15-1.22-3.33-.02-1.25-.21-3.28.84.87-.12-.59-.37-1.78-.68-3.25-.16-.73-.33-1.53-.5-2.35-.14-.83-.29-1.69-.44-2.53-.58-3.36-1.24-6.42-1.52-6.51.07-.77-.38-3.35-.53-3.97-.33-2.69-.5-4.15-.57-5.61-.1-1.46-.21-2.9-.44-5.55v1.48c-.44-1.02-.63-2.12-.6-3.51,0-1.38.09-3.04,0-5.19l.08.12c.03-1.23.06-2.22.08-3.03.04-.81.07-1.43.1-1.94.04-1.01.02-1.54,0-2.06-.02-.52-.03-1.04.02-2.04.03-.5.07-1.11.12-1.9.07-.79.22-1.76.38-2.96l-.52.5c-.48-.48-.17-2.63.26-5.35.49-2.71,1.26-5.97,1.39-8.79l-.52,1.98c.02-.77.14-1.69.43-2.66.29-.97.66-2,1.04-3.02.79-2.04,1.54-4.08,1.98-5.55.25-.63-.12,1.05-.2,1.99,2.28-7.71-.41-1.14.74-7.03.59-.99.49,1.57,1.51-2.31.4-.93.89-3.81,1.58-7.11.41-1.63.87-3.36,1.37-5,.25-.82.51-1.62.78-2.36.3-.74.62-1.42.94-2.04-.68,1.04-1.35,2.08-.54-.59,1.36-4.08,5.2-10.34,6.16-14.13.3-.46.46-.61.53-.6.33-.75.75-1.73,1.22-2.82.24-.54.49-1.11.74-1.68.28-.56.56-1.13.83-1.69,1.1-2.24,2.11-4.35,2.39-5.33.73-.45,1.75-1.76,2.83-3.49.55-.86,1.12-1.83,1.7-2.84.59-1,1.24-2,1.85-3.01,2.4-4.05,4.89-7.59,5.46-7.11,1.94-2.73,4.1-5.29,6.21-7.9l-.05.3c1.02-1.24,1.94-2.22,2.7-3.09.75-.87,1.36-1.61,1.87-2.26,1.01-1.31,1.65-2.28,2.33-3.19,1.13-.98.46-.11.43.03,1.7-1.62,3.02-2.87,4.13-3.93,1.13-1.04,2.05-1.86,2.91-2.7.86-.83,1.66-1.66,2.58-2.65.93-.98,2.04-2.05,3.42-3.46l.95-.14c.37-.39,1.21-1.12,2.44-2.02,1.24-.87,2.82-1.97,4.57-3.19.44-.31.88-.62,1.34-.95.47-.3.95-.62,1.43-.93.96-.64,1.95-1.3,2.95-1.96,1.96-1.39,4.02-2.68,5.9-4.01-.05.1-.16.28-.74.72,1.06-.74,2.2-1.49,3.38-2.23,1.2-.71,2.47-1.37,3.73-2.04,1.27-.66,2.54-1.34,3.82-1.95,1.29-.58,2.56-1.16,3.79-1.71,1.23-.55,2.38-1.12,3.49-1.6,1.11-.47,2.14-.93,3.06-1.38,1.84-.88,3.21-1.77,3.93-2.52l6.23-2.88c-8.34,3.06.96-1.21-2.56-.18.81-.34,1.76-.68,2.66-.98.91-.26,1.78-.46,2.42-.59,1.28-.25,1.63-.17-.4.55l-.67.13c-.59.69,2.05-.1,4.84-.97.7-.21,1.4-.45,2.07-.64.68-.17,1.32-.33,1.86-.46,1.09-.26,1.83-.38,1.82-.2,12.08-3.41,24.36-5.11,36.31-5.6l-.32-4.01c-4.81.47-9.53,1.34-14.08,2.6l2.06.19c-1.88.51-3.77.98-5.61,1.61-1.51.32-2.15.1,1.85-1.17-1.11.14-2.77.76-4.13,1.4-1.35.68-2.41,1.33-2.44,1.43-3.83,1.41-3.17.96-1.86.17,1.31-.78,3.38-1.65,2.18-1.23-1.07.41-2.12.87-3.16,1.35l.74-.23c-2.43,1.39-2.55,1.71-7.02,3.99-2.86,1.4-1.66.38-2.76.97-.02-.05-.4.15-1.66.98l-1.59.95-1.55,1.02-1.55,1.02-1.51,1.08c.91-.44,1.81-.86,2.75-1.24-2.53,2.08-5.61,4.06-2.5,2.55-1.16.52-3.09,1.84-5.32,3.64-1.1.92-2.3,1.91-3.46,3.04-.58.56-1.19,1.12-1.77,1.71l-1.72,1.81c-4.57,4.83-8.1,10.2-9.03,11.41-2.14,4.06-4.37,7.97-6.66,13.06.66-1.23,1.56-1.72-.36,2.65-.14-.53-.47-.31-.88.4-.4.71-.9,1.89-1.45,3.24-.49,1.38-1.03,2.92-1.54,4.35-.46,1.45-.97,2.76-1.43,3.66.71-1.63-.07,1.73-.55,4.88-.51,3.15-.66,6.08.09,3.43-.58,3.97-.53.17-1.2,3.18-.2,4.81-.39,10.09-.07,15.67.32,5.57,1.17,11.43,2.92,17.14.22.13-.06-1.85.88.52.12,1.05.35,2.07.54,3.11.2,1.04.37,2.09.64,3.11.97,2.16,1.66,1.66,2.89,5.8-.12-.62-.28-1.53.41-.12,2.26,5.34,5.24,10.45,8.77,15.19,3.54,4.74,7.64,9.09,12.13,13,8.98,7.84,19.45,13.85,30.5,18.27-2.94-1.36-.9-.68,1.43.05-1.5-.55.16-.4-.07-.72,3.08,1.14,6.21,2.19,9.42,2.99.48-.08,1.36-.01,2.45.14,1.09.13,2.38.28,3.64.43,2.53.3,4.99.4,5.51.15l-3.11-.12c2.1-.22.67-.74-1.14-1.32-1.81-.67-4-1.42-3.64-1.86-1.14.05-2.44-.18-3.85-.48-1.41-.31-2.9-.86-4.49-1.35-3.14-1.14-6.56-2.37-10.19-3.21-1.44-.78,1.4.22.68-.3-1.88-.29-4.04-1.05-7.68-3.11l.47.12c-5.24-2.62-8.73-4.99-12.17-7.67-3.39-2.73-6.8-5.76-11.18-10.62l.32,1.03c-.48-.52-.85-.95-1.16-1.31-.29-.37-.52-.68-.72-.95-.38-.55-.66-.94-1.04-1.48-1.34-.99-.05.51,1.26,2.05,1.33,1.52,2.77,3,1.45,2.21-1.01-1.65-4.28-5.4-7.08-9.35-1.43-1.95-2.66-3.99-3.61-5.66-.88-1.72-1.53-3.06-1.56-3.75-1.96-3.85.09,1.39-1.88-2.48-.09-.38-.16-.77-.23-1.17l-.8-.84c-1.16-2.61-1.25-4.12-1.08-4.3.24.64.75,1.8,1.1,2.45-.31-.86-.64-1.92-1.07-2.99-.44-1.07-.85-2.21-1.23-3.29-.83-2.12-1.38-4.03-1.52-4.65.33,1.34.6,2.7,1.01,4.02-1.99-5.55-3.36-12.01-3.9-18.49-.57-6.48-.4-12.96.08-18.67l-.32.84c.06-1.1.18-2.02.3-2.83.12-.8.23-1.48.32-2.09.23-1.2.48-2.07.71-2.98.22-.91.53-1.82.89-3.09.34-1.28.86-2.89,1.54-5.2l-.05.35c.41-1.89,1.19-4.36,2.27-6.77-.35,1.17.21.17.73-.74.57-.89,1.1-1.69.55-.2.9-2.18,1.47-3.55,1.9-4.43.4-.9.58-1.35.7-1.73.24-.75.28-1.14,1.54-4.08l1.11-1.02c.9-1.98.8-2.27,3.65-6.2-2.19,3.31,2.34-2.08-.05,1.67,3.32-3.8,5.77-6.6,7.78-8.9,2.06-2.26,3.78-3.94,5.93-4.96.73-.92.66-1.07.15-.8-.51.26-1.43.96-2.35,1.77-1.89,1.55-3.73,3.53-2.89,2.53-.9.64-.35-.17.74-1.41,1.13-1.19,2.79-2.82,4.09-3.76.64-.5,1.27-.92,1.98-1.31.72-.36,1.49-.75,2.39-1.2,1.8-.9,4.11-2.09,7.58-4.15-.7.4-.7.5-1.39.91,2.7-1.34,4.99-3.23,8.54-4.4.83-.69,1.94-1.17,2.87-1.58.95-.37,1.72-.7,1.86-1.18-1.15.47-2.31.93-3.43,1.47-1.13.52-2.26,1.03-3.35,1.62.92-.53,1.83-1.03,2.78-1.55.94-.53,1.91-1.1,3.01-1.6,1.09-.52,2.26-1.08,3.61-1.52.67-.24,1.39-.47,2.14-.7.76-.21,1.57-.39,2.43-.57-.49.3-2.44,1.04-3.74,1.63,1.99-.44,3.72-1.27,5.82-1.59-.1.22-.69.48-1.58.8-.89.33-2.1.62-3.39,1.08-1.3.44-2.72.88-4.04,1.45-.66.27-1.3.55-1.91.82-.6.28-1.14.6-1.63.88,1.04-.31,2.97-1.19,4.41-1.81,1.45-.62,2.42-.91,1.49-.16.68-.51,1.5-.91,2.42-1.27.92-.34,1.96-.58,3.06-.85,2.21-.51,4.69-.98,7.32-1.84l-.27.53c.83-.25,2.57-.72,4.15-.9l-2.76.99c1.32-.35,2.64-.53,3.94-.66l-.39-4.85c-3.06.15-6.07-.07-9.09.42,9.2-.79,2.12.39,6.03.42-2.81.39-4.63.49-5.97.57-1.34.09-2.21.03-3.13-.04-1.83-.11-3.87-.4-10.14.89,1.69-.37,6.43-.85,3.81-.16-2.4.34-5.6.68-7.11.74-8.23,1.97,1.37.19-2.08,1.27-1.46.04-2.46.32-3.53.73-.53.21-1.09.42-1.73.67-.64.27-1.36.56-2.23.85l-.15-.46c-9.33,2.31-2.2,1.54-10.5,3.85l3.26-1.78-4.22,1.58.71-.81c-1.14.47-2.08.86-2.92,1.21-.83.37-1.57.68-2.32.96-1.49.58-2.99,1.08-5.26,1.89,1.16-.12-.24,1.06-4.11,2.78-1.38.45-1.06.18-1.07.11,0-.03-.1-.02-.53.16-.43.18-1.22.5-2.55,1.2,1.07-.91,2.3-1.82,4.88-2.48.18-.25,1.11-.82,1.3-1.07-1.5.48-3.31,1.26-5,2.03-1.66.82-3.18,1.67-4.16,2.15.76-.36,1.68-.79,2.17-.95-2.51,1.53-5.06,2.93-7.46,4.6-1.29.51-.41-.15.47-.8-1.52.91-2.49,1.7-4.74,3,.39-.67.04-.94,3.19-2.9l-3.54,2.23c-1.18.75-2.3,1.58-3.45,2.36-.56.15-3.89,1.87-3.05,1.17-1.03.54-2.08,1.31-3.19,2.14-1.11.83-2.27,1.74-3.46,2.67-2.38,1.89-4.79,4.03-7.34,5.75-.2.26-.64.73-1.61,1.61-2.23,1.82-4.46,3.4-6.58,5.32-1.07.94-2.16,1.92-3.27,2.97-1.11,1.05-2.16,2.28-3.28,3.57l-3.25,2.26c-3.49,4.07,4.17-3.27-1.63,3.5-4.06,4.81-2.03,1.34-3.66,2.86-.87,1.33-2.03,3.16-3.49,5.16-.74,1-1.52,2.06-2.33,3.17-.83,1.09-1.74,2.19-2.72,3.27,1.05-1.61,2.03-2.75,3.07-4.21ZM6.78,125.35c.12-.63.27-1.58.46-2.48.23-.89.49-1.72.77-2.12.04.77-.09,1.41-.34,2.1-.22.7-.53,1.47-.9,2.49Zm2.4,98.38c-.45-.85-.74-2.28-1.03-3.91.37,1.13.7,2.45,1.03,3.91Zm216.88,96.62s-.06.07-.08.1c-1.09.83-1.46,1.07-1.35.99.12-.07.69-.51,1.43-1.09Zm4.34-3.68c.37-.44.29-.46.07-.34-.2.36-1.12,1.25-2.2,2.23.38-.18.97-.63,2.13-1.88ZM128.31,12.33c.36-.16.7-.34,1.06-.48-2.18,1.45-1.61.98-1.06.48Z"/>
          <path class="cls-7" d="m5.55,213.02c0-.37.06-.49.13-.59-.19-.47-.29-.46-.13.59Z"/>
          <path class="cls-7" d="m64.71,37.41l.16-.12c.07-.09.1-.15.1-.19-.09.1-.17.21-.26.32Z"/>
          <path class="cls-7" d="m147.68,342.68c-1.2-.21-1.85-.4-2.28-.58-.08.09.44.34,2.28.58Z"/>
          <path class="cls-7" d="m246.92,291.81c-.43,1.12-.96,2.21-1.47,3.3.78-1.57,1.16-2.07,1.58-2.85-.14.03-.57.58-.11-.45Z"/>
          <path class="cls-7" d="m257.32,261.72c-.05-.55.02-1.16-.02-1.7l-.23.14c-.01,1.16,0,2.15,0,2.55.03.4.12.21.24-.99Z"/>
          <path class="cls-7" d="m249.75,289.37c.24-.06.54-.64.89-1.51.18-.44.36-.94.56-1.49.17-.56.35-1.16.54-1.78-.05.15-.1.29-.15.43-.15-.45-.4-.01-.69.87-.31.88-.75,2.17-1.16,3.48Z"/>
          <path class="cls-7" d="m251.93,284.01c.23-.76.51-1.53.72-2.28-.13-.35-.3.92-.72,2.28Z"/>
          <path class="cls-7" d="m235.11,311.22c.87-.85.1-.91.67-1.31.49-1.36-4.79,6.48-.67,1.31Z"/>
          <polygon class="cls-7" points="251.76 287.9 250.95 288.59 250.79 290.1 251.76 287.9"/>
          <path class="cls-7" d="m241.79,305.91c.87-1.09,1.62-2.26,2.42-3.4-.11,0,.14-.46.46-1.03-.71,1.07-1.45,2.19-2,3.04-.57.84-.97,1.38-.87,1.39Z"/>
          <path class="cls-7" d="m244.67,301.48c.69-1.15,1.3-2.26,1.6-2.94-.36.63-1.11,1.99-1.6,2.94Z"/>
          <path class="cls-7" d="m249.67,293.23l-.6,1.08-1.38,2.62c.67-1.23,1.39-2.43,1.98-3.7Z"/>
          <path class="cls-7" d="m207.81,334.25c-1.36.67-2.71,1.35-4.12,1.92-.38.32.84,0,2.37-.75.95-.56,2.46-1.32,1.75-1.18Z"/>
          <path class="cls-7" d="m220.54,328.65c-1.1.6-1.24.54-1.92.78l.22.6,1.7-1.38Z"/>
          <path class="cls-7" d="m208.91,335.42c-.34.34-5.94,3.23-.58.76.38-.32,4.48-2.49.58-.76Z"/>
          <polygon class="cls-7" points="140.95 339.82 142.1 340.02 142.12 338.98 140.95 339.82"/>
          <path class="cls-7" d="m83.22,320.42c4.64,2.95,1.45.11,5.6,2.84,1.23.43-3.39-2.23-2.14-1.76-3-1.42-4.42-2.43-3.46-1.09Z"/>
          <path class="cls-7" d="m86.67,321.5c.48.23.99.47,1.54.71-.86-.42-1.28-.6-1.54-.71Z"/>
          <path class="cls-7" d="m162.8,174.17c1.18.23,2.37.34,3.55.52l-2.28-.52c-.43.02-.85.02-1.28,0Z"/>
          <path class="cls-7" d="m169.68,173.88l.82.67,1.89-.47-1.83-1.83.07.25c0-.07,0-.15,0-.25l1.76,1.76c-.82,0-2.16,0-2.71-.14Z"/>
          <path class="cls-7" d="m3.1,134.56l.09.3c.28-.5.48-1.31.87-2.92l-.96,2.63Z"/>
          <polygon class="cls-7" points="20.41 89.84 20 90.56 21.26 89.49 20.41 89.84"/>
          <path class="cls-7" d="m43.08,56.5c-.56.6-1.15,1.29-1.73,1.97-.58.69-1.11,1.41-1.66,2.04.56-.71,1.08-1.32,1.57-1.82.5-.49.94-.88,1.28-1.19.68-.62.96-.92.54-1Z"/>
        </g>
      </g>
    </g>
    <line class="cls-1" x1="172.39" y1="283" x2="172.39" y2="232"/>
    <text class="cls-2" transform="translate(68.58 167.96)"><tspan x="0" y="0">MARTIAL ARTS </tspan><tspan x="70.74" y="48.37">CLUB</tspan></text>
    <text/>
  </g>
</svg>